<svg xmlns="http://www.w3.org/2000/svg" viewBox="0 0 520 120" role="img" aria-labelledby="title desc">
  <title id="title">金股睿析 Logo</title>
  <desc id="desc">适用于深色背景的金股睿析横版标志</desc>
  <defs>
    <linearGradient id="bg" x1="8" y1="4" x2="58" y2="62" gradientUnits="userSpaceOnUse">
      <stop stop-color="#102C60"/><stop offset="0.58" stop-color="#2364D7"/><stop offset="1" stop-color="#079AB8"/>
    </linearGradient>
    <linearGradient id="trend" x1="15" y1="46" x2="50" y2="27" gradientUnits="userSpaceOnUse">
      <stop stop-color="#7DEBFF"/><stop offset="1" stop-color="#7CF5BE"/>
    </linearGradient>
  </defs>
  <g transform="translate(4 4) scale(1.75)">
    <rect x="2" y="2" width="60" height="60" rx="16" fill="url(#bg)"/>
    <rect x="2.75" y="2.75" width="58.5" height="58.5" rx="15.25" fill="none" stroke="#D7F4FF" stroke-opacity="0.32" stroke-width="1.5"/>
    <path d="M15 27.5c0-5.3 4.2-9.5 9.5-9.5 2.2 0 4.2.7 5.8 2.1 1.9-4.8 6.1-7.6 10.9-7.6 6.4 0 11.6 5.2 11.6 11.6 0 5.7-4.1 10.4-9.6 11.4" fill="none" stroke="#FFFFFF" stroke-width="5" stroke-linecap="round" stroke-linejoin="round"/>
    <path d="M15.5 46 26.5 36.8 35.2 41.5 49 27.5M41.8 27.5H49v7.2" fill="none" stroke="url(#trend)" stroke-width="5" stroke-linecap="round" stroke-linejoin="round"/>
  </g>
  <text x="132" y="56" fill="#F7FBFF" font-family="Microsoft YaHei, Noto Sans SC, PingFang SC, sans-serif" font-size="40" font-weight="800" letter-spacing="2">金股睿析</text>
  <rect x="133" y="72" width="30" height="4" rx="2" fill="#55E7A3"/>
  <text x="174" y="79" fill="#B9D5F4" font-family="Inter, Segoe UI, Arial, sans-serif" font-size="17" font-weight="650" letter-spacing="0.5">RuyiDailyStockAnalysis</text>
  <text x="133" y="102" fill="#8FAECD" font-family="Microsoft YaHei, Noto Sans SC, PingFang SC, sans-serif" font-size="12" letter-spacing="1.4">AI 量化分析工作台</text>
</svg>
