<svg xmlns="http://www.w3.org/2000/svg" viewBox="0 0 64 64" fill="none">
  <defs>
    <linearGradient id="g" x1="0" y1="0" x2="1" y2="1">
      <stop offset="0%" stop-color="#4FC3F7"/>
      <stop offset="100%" stop-color="#FFD54F"/>
    </linearGradient>
  </defs>
  <path d="M32 2L58 16V30C58 46 46 58 32 62C18 58 6 46 6 30V16L32 2Z" 
        fill="url(#g)" opacity="0.2"/>
  <path d="M32 6L54 18V30C54 44 44 54 32 58C20 54 10 44 10 30V18L32 6Z" 
        fill="url(#g)" opacity="0.3"/>
  <path d="M32 10L50 20V30C50 42 42 50 32 54C22 50 14 42 14 30V20L32 10Z" 
        fill="url(#g)" opacity="0.4"/>
  <rect x="26" y="22" width="3" height="18" rx="1" fill="#4FC3F7"/>
  <rect x="31" y="16" width="3" height="24" rx="1" fill="#4FC3F7"/>
  <rect x="36" y="26" width="3" height="14" rx="1" fill="#4FC3F7"/>
  <path d="M44 36L38 28L32 34L26 24" stroke="#FFD54F" stroke-width="2" 
        stroke-linecap="round" stroke-linejoin="round" fill="none"/>
  <path d="M44 30V36H38" stroke="#FFD54F" stroke-width="2" 
        stroke-linecap="round" stroke-linejoin="round" fill="none"/>
</svg>